<svg xmlns="http://www.w3.org/2000/svg" viewBox="0 0 245.38 283.79"><g id="Layer_2" data-name="Layer 2"><g id="image"><path d="M75.68,29.57S70,70.88,48.33,78.57,7.37,98.4,14,123.81-9.7,157.79,3.26,180s38.64,29.42,56.45,19.47,77.82-74.75,83.74-76.78,31.18-19.85,19.11-54.48S75.68,29.57,75.68,29.57Z" style="fill:#b26ead"/><path d="M119,12.38s29,16.81,34.13,28.21,1.62,19.5,8.68,29.89c0,0,5.34-15.71,6-22.73s-2.52-42-23.94-46.44S119,5.21,119,5.21Z" style="fill:#b26ead"/><path d="M182.6,54.46s7.67-.75,10.9,2,17.28,31.08,16.17,57.9l-18.41-1.1s-15.82-9.76-16-27.15A74.38,74.38,0,0,1,182.6,54.46Z" style="fill:#b55743"/><rect x="152.55" y="39.76" width="34.45" height="53.06" rx="7.04" transform="translate(-8.37 104.79) rotate(-33.52)" style="fill:#312554"/><rect x="153.99" y="44.21" width="27.8" height="42.82" rx="5.68" transform="translate(-9.44 97.99) rotate(-31.69)" style="fill:#b0ada3"/><path d="M194.88,225l-26.4-41.55a13.58,13.58,0,0,1,4.66-19.29L185,157.43a15.36,15.36,0,0,1,20.22,5.21L227,186.71c4.28,6.74.76,26.31-6.08,30.18l2.61,9.2C214.32,237,199.16,231.72,194.88,225Z" style="fill:#b55743"/><path d="M129.43,15.58c15.44,2.31,27.49,15.1,28.07,30.7,0,.49,0,1,0,1.49-.1,13.72,1,16.59,1.84,20,2.78,11.79-2.45,26.81-11.2,30.8-11.22,5.12-35.87-8.31-35.87-8.31s-3.46-6.79-4.72-19.72-1.38-20.09-1.38-20.09,6.46-37,15.2-36C123.86,14.77,126.67,15.16,129.43,15.58Z" style="fill:#b55743"/><path d="M152.4,116.19s-12.42,3.91-15.11-4.54.73-17.86.73-17.86L109.57,76.31s2.49,28.72-8,34a83.31,83.31,0,0,0-14.18,9l22.76,36.72,54.62-10.6Z" style="fill:#b55743"/><path d="M146.36,60.14c.64,3.54.19,5.72,2.2,9.13s1.87,6.75-2.46,7c-5.84.32-4.22.29-4.22.29" style="fill:none;stroke:#21173d;stroke-miterlimit:10;stroke-width:2px"/><path d="M128.66,60.7c.05,2,1.48,3.69,3.19,3.65s3.07-1.74,3-3.79-1.43-2-3.14-1.92S128.61,58.65,128.66,60.7Z" style="fill:#21173d"/><path d="M150.75,59.81c.23,2,1.48,3.57,2.79,3.42s2.18-1.92,2-4-1-1.49-2.35-1.34S150.53,57.76,150.75,59.81Z" style="fill:#21173d"/><path d="M134,50a1.68,1.68,0,0,1-1.72,1.65c-2.31-.07-6.42,0-8.73,1.31-3.35,1.89-1.63-3.15,3.75-4.07a41.09,41.09,0,0,1,5-.6A1.69,1.69,0,0,1,134,50Z" style="fill:#21173d"/><path d="M147.76,48.35c.08.93.71,1.58,1.41,1.44,1.71-.36,4.79-.78,6.61.23,2.63,1.46,1-3.35-3.1-3.61a23.05,23.05,0,0,0-3.74,0,1.68,1.68,0,0,0-1.18,1.92Z" style="fill:#21173d"/><path d="M148.31,114s.57,8.75-18,12.88c-15.6,3.46-35.81-14.07-35.81-14.07l-5.42-1.12-17.2,77.81L74.33,265c.31,4.6,1,8.07,8.88,7.78,78.66,22.74,70.84,4.09,89.41-1.93a7.19,7.19,0,0,0,6.69-7.72l-3.44-46.52,3.46-52.35-21.51-42.8Z" style="fill:#ff8969"/><path d="M149.79,22.59S131,30.8,116.32,44.35s-13.1,20.75-13.1,20.75L70.11,67.76S67.8,11.62,100.37,3.61,149.79,22.59,149.79,22.59Z" style="fill:#b26ead"/><path d="M113.12,65.92s0-11.53-11.77-10.74S95.24,75.54,106,79.07,113.12,65.92,113.12,65.92Z" style="fill:#b55743"/><path d="M148.31,114s46.79-6.86,56.34,48.73c0,0,9.25,12,7.68,14.4S169.78,196,169.78,196,150.31,144.84,149,142.17,148.31,114,148.31,114Z" style="fill:#ff8969"/><path d="M135.32,81.1l14.47-.29s-1.18,10-5.35,10C136.94,90.85,135.32,81.1,135.32,81.1Z" style="fill:#fff"/><path d="M89.08,111.62s-42.64,14.85-45.27,54.32S30.45,259.19,64.6,267.18c10.73,2.51.26-13.72,6-36.79,9.08-36.59,18.89-72.76,18.89-72.76Z" style="fill:#b55743"/><path d="M89.08,111.65s-40.87-2.94-50,36.83-8.75,49.64-8.75,49.64H93.86Z" style="fill:#ff8969"/><path d="M56.55,103.33a117.22,117.22,0,0,0,24.62,26.73c15.09,11.65-8,30.72,6.21,37.07s22.54-37.8,16.06-46.07-.83-25.41-7.71-28.58S56.55,103.33,56.55,103.33Z" style="fill:#b26ead"/><path d="M105.12,70.54c1.68,1.34,3.58-.38,2.57-2.35-1.43-2.79-3.45-5.34-5.82-4.26C99.23,65.13,102.1,68.14,105.12,70.54Z" style="fill:#c7614a"/><polygon points="104.4 75.14 96.66 87.31 104.4 98.17 112.54 86.65 104.4 75.14" style="fill:none;stroke:#312554;stroke-linecap:round;stroke-linejoin:round"/><path d="M104.4,108s13.44,22,34.41,6.4" style="fill:none;stroke:#312554;stroke-linecap:round;stroke-linejoin:round"/><polygon points="75.67 210.18 62.1 223.28 78.77 198.12 75.67 210.18" style="fill:#c7614a"/><text transform="translate(94.17 187.42)" style="font-size:34px;fill:#fff;font-family:AkzidenzGroteskBE-Md, Berthold Akzidenz Grotesk BE;font-weight:500">Allyx.</text><polygon points="194.78 185.6 196.11 200 185.51 189.53 194.78 185.6" style="fill:#c7614a"/><path d="M58.84,269.43s47.23-4.65,93.88-42.21L140.6,218s-69.2,8.69-81.45,19.64C37.11,257.38,58.84,269.43,58.84,269.43Z" style="fill:#b55743"/><path d="M143.39,201.88l17.72-10.49s21.09-5.9,22.32-2.23S165,197.38,165,197.38s17.84,3.93,15.14,7.1-18.89,5.62-18.89,5.62,15.49-2,14.58,2-16.16,6.46-16.16,6.46-12.37,15.87-18.57,15.37S126.88,219,127.61,218.59c.4-.24,3.39-4.27,6-7.81A33,33,0,0,1,143.39,201.88Z" style="fill:#b55743"/><path d="M66.49,116.19c-.42-.48-9-13,5.39-29.54" style="fill:none;stroke:#312554;stroke-linecap:round;stroke-linejoin:round"/><path d="M147.75,23.54s.53-17.09-26.14-19.74" style="fill:none;stroke:#312554;stroke-linecap:round;stroke-linejoin:round"/><path d="M119,7.77S108,0,87.38,35.24" style="fill:none;stroke:#312554;stroke-linecap:round;stroke-linejoin:round"/><path d="M32.21,182.39c1.31.09,46.56,0,46.56,0" style="fill:none;stroke:#fff;stroke-linecap:round;stroke-linejoin:round;stroke-width:2px"/><path d="M180.33,172.85c1.29-.28,29.17-8.57,29.17-8.57" style="fill:none;stroke:#fff;stroke-linecap:round;stroke-linejoin:round;stroke-width:2px"/><path d="M197.57,214c-2.43-20.54-5.06-58.41-10.41-108.39l21.72,7.52s30.93,81,25.31,98.06c-3.78,11.51-10.24,16-16.84,17.18C206.41,230.27,198.66,223.17,197.57,214Z" style="fill:#b55743"/><polyline points="190.81 140.39 196.11 134.56 203.2 140.39 208.58 132.98 214.05 137.74 216.39 133.87" style="fill:none;stroke:#fff;stroke-linecap:round;stroke-linejoin:round;stroke-width:2px"/></g></g></svg>